<svg width="24" height="24" viewBox="0 0 24 24" fill="none" xmlns="http://www.w3.org/2000/svg">
<path d="M9 14H11V9H9V14ZM5 12.5C4.23333 12.1167 3.625 11.5625 3.175 10.8375C2.725 10.1125 2.5 9.325 2.5 8.475C2.5 7.225 2.92917 6.16667 3.7875 5.3C4.64583 4.43333 5.7 4 6.95 4C7.15 4 7.35417 4.01667 7.5625 4.05C7.77083 4.08333 7.975 4.125 8.175 4.175C8.59167 3.49167 9.13333 2.95833 9.8 2.575C10.4667 2.19167 11.2 2 12 2C12.8 2 13.5333 2.19167 14.2 2.575C14.8667 2.95833 15.4083 3.49167 15.825 4.175C16.025 4.125 16.225 4.08333 16.425 4.05C16.625 4.01667 16.8333 4 17.05 4C18.3 4 19.3542 4.43333 20.2125 5.3C21.0708 6.16667 21.5 7.225 21.5 8.475C21.5 9.325 21.275 10.1125 20.825 10.8375C20.375 11.5625 19.7667 12.1167 19 12.5V18H5V12.5ZM13 14H15V9H13V14ZM7 16H17V11.275L18.1 10.725C18.5333 10.5083 18.875 10.2042 19.125 9.8125C19.375 9.42083 19.5 8.98333 19.5 8.5C19.5 7.8 19.2625 7.20833 18.7875 6.725C18.3125 6.24167 17.7333 6 17.05 6C16.8667 6 16.7 6.01667 16.55 6.05C16.4 6.08333 16.2417 6.125 16.075 6.175L14.9 6.5L14.125 5.2C13.8917 4.81667 13.5875 4.52083 13.2125 4.3125C12.8375 4.10417 12.4333 4 12 4C11.5667 4 11.1625 4.10417 10.7875 4.3125C10.4125 4.52083 10.1083 4.81667 9.875 5.2L9.1 6.5L7.9 6.175C7.73333 6.14167 7.57083 6.10417 7.4125 6.0625C7.25417 6.02083 7.09167 6 6.925 6C6.24167 6 5.66667 6.24167 5.2 6.725C4.73333 7.20833 4.5 7.8 4.5 8.5C4.5 8.98333 4.625 9.42083 4.875 9.8125C5.125 10.2042 5.46667 10.5083 5.9 10.725L7 11.275V16ZM5 18H7V20H17V18H19V22H5V18Z" fill="white"/>
</svg>
