<svg width="32" height="32" viewBox="0 0 32 32" fill="none" xmlns="http://www.w3.org/2000/svg">
<g clip-path="url(#clip0_162_108)">
<rect width="32" height="32" fill="black"/>
<mask id="path-1-outside-1_162_108" maskUnits="userSpaceOnUse" x="0.820679" y="0.333252" width="31" height="29" fill="black">
<rect fill="white" x="0.820679" y="0.333252" width="31" height="29"/>
<path d="M16.0287 1.33325C18.0351 4.00298 20.3462 4.61141 21.1693 7.31665C21.2991 7.74338 21.4201 8.27646 21.4652 8.87329C21.9991 8.7543 22.497 8.71116 22.9105 8.70337C25.7241 8.65049 27.0178 10.64 30.1439 11.7268L30.1595 11.7219C30.1578 11.7245 30.1555 11.7272 30.1537 11.7297C30.1655 11.7338 30.177 11.7393 30.1888 11.7434L30.1332 11.762C28.2426 14.4789 28.3645 16.8482 26.057 18.4592C25.7255 18.6907 25.3081 18.941 24.8207 19.1555C25.1167 19.6458 25.3217 20.1272 25.4623 20.5334C26.3821 23.1929 24.8905 25.0384 24.8226 28.3469L24.8324 28.3606C24.8291 28.3596 24.8259 28.3577 24.8226 28.3567C24.8224 28.3695 24.8209 28.3829 24.8207 28.3958L24.7845 28.3469C21.6174 27.3893 19.4015 28.2378 17.1566 26.5413C16.8162 26.284 16.4254 25.9433 16.0531 25.5149C15.6763 25.9513 15.2798 26.2982 14.9349 26.5588C12.6897 28.2554 10.4741 27.4071 7.30603 28.3655L7.29626 28.3782C7.29621 28.375 7.29632 28.3716 7.29626 28.3684C7.28435 28.372 7.27207 28.3745 7.26013 28.3782L7.29529 28.3303C7.22771 25.0214 5.73585 23.1764 6.65564 20.5168C6.78942 20.1301 6.98176 19.6752 7.25525 19.2092C6.72571 18.9861 6.27468 18.7167 5.92126 18.47C3.6037 16.8513 3.73917 14.4663 1.82068 11.7336L15.5238 16.1868C15.4141 16.3222 15.3029 16.4513 15.1937 16.5774C15.3808 16.62 15.572 16.6677 15.767 16.72L15.7465 16.7483C15.8496 16.9077 15.9467 17.0656 16.0394 17.2209C16.1407 17.0506 16.2488 16.8776 16.3627 16.7024L16.3822 16.7307C16.5332 16.6905 16.6823 16.6547 16.8285 16.6204C16.7041 16.478 16.5795 16.3296 16.4545 16.175L16.4877 16.1643C16.4993 15.9493 16.5151 15.7403 16.5345 15.5374C16.371 15.6068 16.2026 15.6767 16.0287 15.7434C15.8377 15.6702 15.6535 15.5944 15.475 15.5178C15.4957 15.7337 15.5138 15.9562 15.5258 16.1858L1.82068 11.7327C4.97935 10.6495 6.2721 8.64053 9.099 8.6936C9.52468 8.70165 10.0404 8.74716 10.5922 8.87427C10.6372 8.27703 10.7582 7.74361 10.8881 7.31665C11.7111 4.6113 14.0223 4.00291 16.0287 1.33325Z"/>
</mask>
<path d="M16.0287 1.33325L16.5616 0.932729C16.4357 0.765167 16.2383 0.666587 16.0287 0.666585C15.8191 0.666583 15.6217 0.76516 15.4958 0.932719L16.0287 1.33325ZM21.1693 7.31665L21.8071 7.12264L21.8071 7.1226L21.1693 7.31665ZM21.4652 8.87329L20.8004 8.92357C20.815 9.1165 20.9127 9.29358 21.0681 9.40882C21.2236 9.52405 21.4214 9.56608 21.6102 9.52399L21.4652 8.87329ZM22.9105 8.70337L22.898 8.03682L22.898 8.03682L22.9105 8.70337ZM30.1439 11.7268L29.925 12.3565C30.06 12.4034 30.2064 12.4057 30.3428 12.3631L30.1439 11.7268ZM30.1595 11.7219L30.7052 12.105C30.8692 11.8714 30.8663 11.5593 30.6979 11.3287C30.5296 11.0982 30.2332 11.0005 29.9607 11.0856L30.1595 11.7219ZM30.1537 11.7297L29.6079 11.3469C29.4878 11.5181 29.455 11.7358 29.5194 11.9348C29.5837 12.1338 29.7377 12.2911 29.9353 12.3596L30.1537 11.7297ZM30.1888 11.7434L30.3997 12.3759C30.6709 12.2855 30.8543 12.0322 30.8555 11.7463C30.8567 11.4604 30.6755 11.2055 30.4051 11.1128L30.1888 11.7434ZM30.1332 11.762L29.9224 11.1295C29.786 11.1749 29.668 11.2632 29.586 11.3812L30.1332 11.762ZM26.057 18.4592L26.4386 19.0059L26.4386 19.0059L26.057 18.4592ZM24.8207 19.1555L24.5521 18.5453C24.3767 18.6226 24.2429 18.7716 24.1851 18.9544C24.1272 19.1371 24.1509 19.3359 24.2499 19.5001L24.8207 19.1555ZM25.4623 20.5334L26.0923 20.3155L26.0923 20.3155L25.4623 20.5334ZM24.8226 28.3469L24.1561 28.3333C24.1532 28.4768 24.1967 28.6175 24.2801 28.7344L24.8226 28.3469ZM24.8324 28.3606L24.6367 28.9979C24.9099 29.0818 25.2062 28.9822 25.3733 28.7503C25.5404 28.5183 25.541 28.2057 25.3749 27.9731L24.8324 28.3606ZM24.8226 28.3567L25.0203 27.72C24.8202 27.6579 24.6025 27.6934 24.4325 27.8161C24.2626 27.9387 24.1602 28.1341 24.1561 28.3436L24.8226 28.3567ZM24.8207 28.3958L24.2848 28.7923C24.4547 29.0219 24.752 29.1178 25.024 29.0307C25.296 28.9435 25.4823 28.6928 25.4872 28.4072L24.8207 28.3958ZM24.7845 28.3469L25.3204 27.9504C25.2351 27.835 25.1148 27.7503 24.9775 27.7088L24.7845 28.3469ZM17.1566 26.5413L16.7546 27.0731L16.7547 27.0731L17.1566 26.5413ZM16.0531 25.5149L16.5563 25.0776C16.4294 24.9316 16.2454 24.8479 16.052 24.8482C15.8586 24.8485 15.6748 24.9328 15.5485 25.0793L16.0531 25.5149ZM14.9349 26.5588L15.3369 27.0907L15.3369 27.0907L14.9349 26.5588ZM7.30603 28.3655L7.11299 27.7274C6.97976 27.7677 6.86248 27.8487 6.77761 27.959L7.30603 28.3655ZM7.29626 28.3782L6.62968 28.3889C6.63424 28.6723 6.81755 28.9219 7.08667 29.011C7.35578 29.1002 7.65183 29.0093 7.82468 28.7846L7.29626 28.3782ZM7.29626 28.3684L7.96283 28.3571C7.95927 28.148 7.85787 27.9528 7.68891 27.8296C7.51996 27.7065 7.30303 27.6698 7.10295 27.7304L7.29626 28.3684ZM7.26013 28.3782L6.72288 27.9835C6.55266 28.2151 6.55014 28.5298 6.71661 28.7642C6.88308 28.9986 7.18105 29.0999 7.45586 29.0155L7.26013 28.3782ZM7.29529 28.3303L7.83254 28.725C7.91937 28.6069 7.96481 28.4633 7.96182 28.3167L7.29529 28.3303ZM6.65564 20.5168L6.0256 20.2989L6.02559 20.2989L6.65564 20.5168ZM7.25525 19.2092L7.83019 19.5467C7.92744 19.381 7.94849 19.1814 7.88794 18.9991C7.8274 18.8168 7.69114 18.6695 7.51411 18.5949L7.25525 19.2092ZM5.92126 18.47L5.53954 19.0165L5.53964 19.0166L5.92126 18.47ZM1.82068 11.7336L2.02672 11.0996C1.75393 11.011 1.45502 11.1067 1.28454 11.3374C1.11406 11.5681 1.11024 11.8819 1.27505 12.1167L1.82068 11.7336ZM15.5238 16.1868L16.042 16.6062C16.1801 16.4356 16.2254 16.2079 16.163 15.9974C16.1006 15.7869 15.9386 15.6206 15.7298 15.5527L15.5238 16.1868ZM15.1937 16.5774L14.6897 16.1411C14.5364 16.3181 14.4873 16.5626 14.5602 16.7851C14.6332 17.0076 14.8175 17.1755 15.0458 17.2274L15.1937 16.5774ZM15.767 16.72L16.3069 17.111C16.4356 16.9333 16.4686 16.7037 16.3952 16.497C16.3219 16.2903 16.1515 16.1329 15.9397 16.0761L15.767 16.72ZM15.7465 16.7483L15.2065 16.3573C15.0451 16.5802 15.0372 16.8794 15.1867 17.1104L15.7465 16.7483ZM16.0394 17.2209L15.467 17.5626C15.5873 17.7643 15.805 17.8878 16.0399 17.8876C16.2749 17.8874 16.4924 17.7636 16.6124 17.5617L16.0394 17.2209ZM16.3627 16.7024L16.9115 16.3239C16.7852 16.1408 16.5759 16.0327 16.3535 16.0358C16.1311 16.0389 15.9248 16.1526 15.8037 16.3392L16.3627 16.7024ZM16.3822 16.7307L15.8334 17.1092C15.9933 17.341 16.2815 17.4474 16.5536 17.375L16.3822 16.7307ZM16.8285 16.6204L16.9808 17.2694C17.2085 17.216 17.3916 17.0471 17.4632 16.8244C17.5348 16.6018 17.4844 16.3578 17.3305 16.1817L16.8285 16.6204ZM16.4545 16.175L16.2493 15.5408C16.0402 15.6084 15.8779 15.7746 15.8154 15.9852C15.7528 16.1958 15.7981 16.4237 15.9363 16.5945L16.4545 16.175ZM16.4877 16.1643L16.6929 16.7986C16.9554 16.7137 17.1384 16.4758 17.1534 16.2003L16.4877 16.1643ZM16.5345 15.5374L17.1982 15.6008C17.2205 15.3668 17.1181 15.1384 16.9285 14.9996C16.739 14.8607 16.4903 14.8319 16.274 14.9237L16.5345 15.5374ZM16.0287 15.7434L15.7899 16.3659C15.9436 16.4248 16.1137 16.4248 16.2674 16.3659L16.0287 15.7434ZM15.475 15.5178L15.7377 14.9051C15.5213 14.8123 15.272 14.8406 15.0818 14.9795C14.8916 15.1183 14.7888 15.3473 14.8114 15.5817L15.475 15.5178ZM15.5258 16.1858L15.3197 16.8198C15.5285 16.8877 15.7573 16.8484 15.9315 16.7147C16.1057 16.5811 16.203 16.3703 16.1915 16.1511L15.5258 16.1858ZM1.82068 11.7327L1.60442 11.102C1.3331 11.1951 1.15171 11.4512 1.15403 11.7381C1.15636 12.0249 1.34188 12.2781 1.61466 12.3667L1.82068 11.7327ZM9.099 8.6936L9.1116 8.02706L9.11151 8.02705L9.099 8.6936ZM10.5922 8.87427L10.4425 9.52392C10.6319 9.56754 10.8309 9.52636 10.9874 9.41117C11.1439 9.29597 11.2423 9.11822 11.2569 8.92444L10.5922 8.87427ZM10.8881 7.31665L10.2503 7.12262L10.2502 7.12264L10.8881 7.31665ZM16.0287 1.33325L15.4957 1.73378C16.5516 3.13869 17.7073 4.02038 18.601 4.81097C19.5019 5.60784 20.174 6.33561 20.5315 7.5107L21.1693 7.31665L21.8071 7.1226C21.3416 5.59245 20.4466 4.66339 19.4845 3.8123C18.5152 2.95494 17.5122 2.19755 16.5616 0.932729L16.0287 1.33325ZM21.1693 7.31665L20.5315 7.51066C20.6502 7.90097 20.7597 8.38521 20.8004 8.92357L21.4652 8.87329L22.13 8.82301C22.0804 8.1677 21.948 7.58579 21.8071 7.12264L21.1693 7.31665ZM21.4652 8.87329L21.6102 9.52399C22.0924 9.41653 22.5449 9.37704 22.9231 9.36992L22.9105 8.70337L22.898 8.03682C22.4491 8.04528 21.9057 8.09208 21.3202 8.22259L21.4652 8.87329ZM22.9105 8.70337L22.923 9.36992C24.1453 9.34695 25.0425 9.7571 26.0721 10.3624C27.0931 10.9627 28.281 11.785 29.925 12.3565L30.1439 11.7268L30.3628 11.0971C28.8807 10.5819 27.8586 9.86602 26.7479 9.21301C25.6457 8.56509 24.4893 8.00691 22.898 8.03682L22.9105 8.70337ZM30.1439 11.7268L30.3428 12.3631L30.3584 12.3582L30.1595 11.7219L29.9607 11.0856L29.9451 11.0905L30.1439 11.7268ZM30.1595 11.7219L29.6139 11.3388C29.6196 11.3308 29.6241 11.3248 29.6263 11.3218C29.6284 11.3191 29.6301 11.3168 29.6292 11.318C29.6291 11.3182 29.6263 11.3218 29.6232 11.3259C29.62 11.3301 29.6144 11.3376 29.6079 11.3469L30.1537 11.7297L30.6995 12.1126C30.6938 12.1206 30.6892 12.1268 30.687 12.1297C30.6849 12.1325 30.6831 12.1348 30.684 12.1336C30.6841 12.1335 30.6869 12.1299 30.6899 12.1259C30.6931 12.1217 30.6986 12.1143 30.7052 12.105L30.1595 11.7219ZM30.1537 11.7297L29.9353 12.3596C29.9264 12.3565 29.9199 12.354 29.9173 12.353C29.9153 12.3522 29.9138 12.3515 29.9177 12.3531C29.9201 12.3541 29.9275 12.3572 29.9359 12.3605C29.9447 12.364 29.9574 12.3688 29.9726 12.374L30.1888 11.7434L30.4051 11.1128C30.4143 11.116 30.4211 11.1186 30.4241 11.1198C30.4266 11.1208 30.4282 11.1214 30.4248 11.12C30.4229 11.1192 30.4156 11.1162 30.4076 11.1131C30.3992 11.1097 30.3868 11.105 30.372 11.0998L30.1537 11.7297ZM30.1888 11.7434L29.978 11.111L29.9224 11.1295L30.1332 11.762L30.344 12.3944L30.3997 12.3759L30.1888 11.7434ZM30.1332 11.762L29.586 11.3812C28.5917 12.8099 28.1138 14.1732 27.6404 15.2588C27.1629 16.3536 26.6779 17.2127 25.6754 17.9126L26.057 18.4592L26.4386 19.0059C27.7437 18.0947 28.3514 16.9637 28.8625 15.7918C29.3776 14.6108 29.784 13.4309 30.6804 12.1427L30.1332 11.762ZM26.057 18.4592L25.6754 17.9126C25.3734 18.1234 24.9937 18.351 24.5521 18.5453L24.8207 19.1555L25.0892 19.7657C25.6224 19.531 26.0776 19.2579 26.4386 19.0059L26.057 18.4592ZM24.8207 19.1555L24.2499 19.5001C24.5171 19.9425 24.7036 20.3797 24.8323 20.7514L25.4623 20.5334L26.0923 20.3155C25.9398 19.8746 25.7163 19.3491 25.3914 18.811L24.8207 19.1555ZM25.4623 20.5334L24.8322 20.7514C25.2318 21.9067 25.1192 22.8868 24.8618 24.0531C24.6066 25.2096 24.1918 26.5934 24.1561 28.3333L24.8226 28.3469L25.4892 28.3606C25.5213 26.792 25.8862 25.5987 26.1638 24.3404C26.4393 23.092 26.6126 21.8196 26.0923 20.3155L25.4623 20.5334ZM24.8226 28.3469L24.2801 28.7344L24.2899 28.7481L24.8324 28.3606L25.3749 27.9731L25.3651 27.9594L24.8226 28.3469ZM24.8324 28.3606L25.0281 27.7233C25.0531 27.731 25.0724 27.7386 25.0832 27.743C25.0888 27.7453 25.0932 27.7472 25.0957 27.7483C25.0979 27.7493 25.0998 27.7501 25.0991 27.7498C25.099 27.7498 25.0983 27.7494 25.0975 27.7491C25.0966 27.7487 25.0953 27.7481 25.0937 27.7474C25.0905 27.746 25.0855 27.7438 25.0792 27.7413C25.0729 27.7387 25.0647 27.7354 25.0551 27.7318C25.0454 27.7283 25.0337 27.7242 25.0203 27.72L24.8226 28.3567L24.6249 28.9934C24.6124 28.9895 24.6015 28.9857 24.5926 28.9824C24.5838 28.9791 24.5764 28.9762 24.5709 28.9739C24.5655 28.9717 24.5613 28.9698 24.5589 28.9688C24.5568 28.9679 24.5551 28.9671 24.5559 28.9675C24.5561 28.9676 24.5587 28.9687 24.5618 28.9701C24.5651 28.9715 24.5703 28.9738 24.5767 28.9764C24.5891 28.9815 24.6101 28.9897 24.6367 28.9979L24.8324 28.3606ZM24.8226 28.3567L24.1561 28.3436C24.1562 28.3366 24.1565 28.3316 24.1566 28.3301C24.1566 28.3291 24.1567 28.3285 24.1564 28.3327C24.1562 28.3355 24.1557 28.3426 24.1553 28.3506C24.1549 28.3588 24.1543 28.3705 24.1541 28.3843L24.8207 28.3958L25.4872 28.4072C25.4871 28.4145 25.4869 28.4198 25.4868 28.4215C25.4867 28.4229 25.4866 28.4235 25.4869 28.4197C25.487 28.4173 25.4875 28.4102 25.4879 28.4027C25.4884 28.3947 25.4889 28.3832 25.4892 28.3698L24.8226 28.3567ZM24.8207 28.3958L25.3566 27.9992L25.3204 27.9504L24.7845 28.3469L24.2487 28.7435L24.2848 28.7923L24.8207 28.3958ZM24.7845 28.3469L24.9775 27.7088C23.3119 27.2052 21.8678 27.1723 20.6892 27.0577C19.5006 26.9421 18.5338 26.7464 17.5586 26.0094L17.1566 26.5413L16.7547 27.0731C18.0243 28.0326 19.2878 28.261 20.5602 28.3847C21.8425 28.5094 23.09 28.5311 24.5916 28.9851L24.7845 28.3469ZM17.1566 26.5413L17.5586 26.0094C17.2474 25.7742 16.8925 25.4645 16.5563 25.0776L16.0531 25.5149L15.5499 25.9522C15.9584 26.4222 16.3851 26.7938 16.7546 27.0731L17.1566 26.5413ZM16.0531 25.5149L15.5485 25.0793C15.2081 25.4736 14.8479 25.789 14.533 26.027L14.9349 26.5588L15.3369 27.0907C15.7118 26.8074 16.1446 26.4291 16.5577 25.9505L16.0531 25.5149ZM14.9349 26.5588L14.533 26.027C13.5576 26.764 12.5907 26.9597 11.402 27.0755C10.2232 27.1902 8.77901 27.2234 7.11299 27.7274L7.30603 28.3655L7.49907 29.0036C9.00107 28.5492 10.2487 28.5274 11.5311 28.4025C12.8036 28.2787 14.0671 28.0503 15.3369 27.0907L14.9349 26.5588ZM7.30603 28.3655L6.77761 27.959L6.76785 27.9717L7.29626 28.3782L7.82468 28.7846L7.83445 28.772L7.30603 28.3655ZM7.29626 28.3782L7.96285 28.3675C7.96292 28.372 7.96292 28.3756 7.96292 28.3773C7.96291 28.3787 7.9629 28.3799 7.96291 28.3787C7.96291 28.3782 7.96294 28.3753 7.96295 28.372C7.96295 28.3686 7.96294 28.3634 7.96283 28.3571L7.29626 28.3684L6.62969 28.3798C6.62961 28.3751 6.62961 28.3714 6.62961 28.3696C6.62962 28.368 6.62963 28.3668 6.62962 28.3679C6.62962 28.3683 6.62959 28.3711 6.62959 28.3742C6.62958 28.3776 6.62958 28.3827 6.62968 28.3889L7.29626 28.3782ZM7.29626 28.3684L7.10295 27.7304C7.10982 27.7283 7.11482 27.727 7.11655 27.7265C7.11779 27.7262 7.11856 27.726 7.11461 27.727C7.11197 27.7277 7.10495 27.7294 7.09715 27.7315C7.08898 27.7337 7.07761 27.7368 7.0644 27.7409L7.26013 28.3782L7.45586 29.0155C7.44862 29.0177 7.44327 29.0191 7.44112 29.0197C7.43936 29.0202 7.43839 29.0204 7.4418 29.0196C7.44391 29.019 7.45073 29.0173 7.458 29.0154C7.46575 29.0133 7.47675 29.0103 7.48958 29.0064L7.29626 28.3684ZM7.26013 28.3782L7.79739 28.7729L7.83254 28.725L7.29529 28.3303L6.75803 27.9356L6.72288 27.9835L7.26013 28.3782ZM7.29529 28.3303L7.96182 28.3167C7.92627 26.5765 7.51142 25.1928 7.2562 24.0364C6.99882 22.8701 6.88611 21.8901 7.28569 20.7347L6.65564 20.5168L6.02559 20.2989C5.50538 21.8031 5.6787 23.0754 5.9542 24.3237C6.23186 25.5819 6.59672 26.7751 6.62876 28.3439L7.29529 28.3303ZM6.65564 20.5168L7.28568 20.7348C7.40802 20.3811 7.5831 19.9677 7.83019 19.5467L7.25525 19.2092L6.68031 18.8718C6.38043 19.3827 6.17082 19.8791 6.0256 20.2989L6.65564 20.5168ZM7.25525 19.2092L7.51411 18.5949C7.03577 18.3933 6.62573 18.1487 6.30289 17.9233L5.92126 18.47L5.53964 19.0166C5.92363 19.2847 6.41566 19.5789 6.99639 19.8236L7.25525 19.2092ZM5.92126 18.47L6.30299 17.9234C5.2963 17.2203 4.81204 16.3564 4.33271 15.2538C3.85715 14.1598 3.37589 12.7886 2.36631 11.3506L1.82068 11.7336L1.27505 12.1167C2.18396 13.4113 2.5942 14.599 3.10992 15.7854C3.62187 16.963 4.22866 18.101 5.53954 19.0165L5.92126 18.47ZM1.82068 11.7336L1.61464 12.3677L15.3178 16.8208L15.5238 16.1868L15.7298 15.5527L2.02672 11.0996L1.82068 11.7336ZM15.5238 16.1868L15.0056 15.7673C14.9037 15.8932 14.799 16.0147 14.6897 16.1411L15.1937 16.5774L15.6978 17.0137C15.8067 16.8879 15.9246 16.7512 16.042 16.6062L15.5238 16.1868ZM15.1937 16.5774L15.0458 17.2274C15.2236 17.2679 15.4065 17.3135 15.5943 17.3639L15.767 16.72L15.9397 16.0761C15.7374 16.0218 15.5379 15.972 15.3416 15.9273L15.1937 16.5774ZM15.767 16.72L15.227 16.329L15.2065 16.3573L15.7465 16.7483L16.2864 17.1393L16.3069 17.111L15.767 16.72ZM15.7465 16.7483L15.1867 17.1104C15.2845 17.2616 15.3773 17.4124 15.467 17.5626L16.0394 17.2209L16.6119 16.8793C16.5161 16.7187 16.4147 16.5538 16.3062 16.3862L15.7465 16.7483ZM16.0394 17.2209L16.6124 17.5617C16.7086 17.3999 16.812 17.2345 16.9217 17.0656L16.3627 16.7024L15.8037 16.3392C15.6856 16.5208 15.5728 16.7013 15.4664 16.8802L16.0394 17.2209ZM16.3627 16.7024L15.8139 17.0809L15.8334 17.1092L16.3822 16.7307L16.931 16.3522L16.9115 16.3239L16.3627 16.7024ZM16.3822 16.7307L16.5536 17.375C16.695 17.3373 16.8366 17.3032 16.9808 17.2694L16.8285 16.6204L16.6762 15.9713C16.528 16.0061 16.3714 16.0437 16.2108 16.0865L16.3822 16.7307ZM16.8285 16.6204L17.3305 16.1817C17.2121 16.0462 17.0929 15.9042 16.9727 15.7556L16.4545 16.175L15.9363 16.5945C16.0661 16.7549 16.1961 16.9099 16.3265 17.059L16.8285 16.6204ZM16.4545 16.175L16.6597 16.8093L16.6929 16.7986L16.4877 16.1643L16.2825 15.53L16.2493 15.5408L16.4545 16.175ZM16.4877 16.1643L17.1534 16.2003C17.1645 15.9946 17.1796 15.7948 17.1982 15.6008L16.5345 15.5374L15.8709 15.4739C15.8507 15.6858 15.8341 15.9039 15.822 16.1283L16.4877 16.1643ZM16.5345 15.5374L16.274 14.9237C16.1134 14.9919 15.9532 15.0583 15.7899 15.121L16.0287 15.7434L16.2674 16.3659C16.452 16.2951 16.6285 16.2217 16.7951 16.151L16.5345 15.5374ZM16.0287 15.7434L16.2675 15.121C16.0861 15.0514 15.91 14.979 15.7377 14.9051L15.475 15.5178L15.2122 16.1305C15.3969 16.2097 15.5893 16.2889 15.7899 16.3659L16.0287 15.7434ZM15.475 15.5178L14.8114 15.5817C14.8315 15.7908 14.8487 16.0032 14.86 16.2205L15.5258 16.1858L16.1915 16.1511C16.1789 15.9092 16.16 15.6766 16.1386 15.454L15.475 15.5178ZM15.5258 16.1858L15.7318 15.5518L2.02669 11.0986L1.82068 11.7327L1.61466 12.3667L15.3197 16.8198L15.5258 16.1858ZM1.82068 11.7327L2.03694 12.3633C3.69909 11.7933 4.89462 10.9669 5.92258 10.3615C6.95868 9.75125 7.85849 9.3371 9.08648 9.36015L9.099 8.6936L9.11151 8.02705C7.51261 7.99703 6.3526 8.5608 5.24593 9.21258C4.13112 9.86916 3.10094 10.5888 1.60442 11.102L1.82068 11.7327ZM9.099 8.6936L9.0864 9.36015C9.47582 9.36751 9.94441 9.40918 10.4425 9.52392L10.5922 8.87427L10.7418 8.22461C10.1363 8.08514 9.57354 8.03579 9.1116 8.02706L9.099 8.6936ZM10.5922 8.87427L11.2569 8.92444C11.2976 8.38569 11.4071 7.90113 11.5259 7.51066L10.8881 7.31665L10.2502 7.12264C10.1093 7.5861 9.97687 8.16838 9.92739 8.8241L10.5922 8.87427ZM10.8881 7.31665L11.5259 7.51068C11.8834 6.33555 12.5555 5.60776 13.4563 4.8109C14.35 4.02032 15.5058 3.13866 16.5616 1.73378L16.0287 1.33325L15.4958 0.932719C14.5452 2.1975 13.5421 2.95486 12.5729 3.81223C11.6107 4.66332 10.7158 5.5924 10.2503 7.12262L10.8881 7.31665Z" fill="white" fill-opacity="0.16" mask="url(#path-1-outside-1_162_108)"/>
<path d="M16.0292 1.33325C18.0356 4.00305 20.3468 4.61124 21.1698 7.31665C21.7594 9.25495 22.1806 13.384 16.0292 15.7434C9.87784 13.384 10.299 9.25492 10.8886 7.31665C11.7116 4.61124 14.0227 4.00305 16.0292 1.33325Z" fill="white" fill-opacity="0.81"/>
<path d="M1.82059 11.7328C4.97947 10.6496 6.27217 8.64042 9.09938 8.69371C11.125 8.73199 15.1823 9.60688 15.5255 16.1858L1.82059 11.7328ZM15.5242 16.1864C11.3794 21.3072 7.58277 19.6302 5.92167 18.4705C3.60352 16.8518 3.73902 14.4667 1.82029 11.7338L15.5242 16.1864Z" fill="white" fill-opacity="0.81"/>
<path d="M7.29521 28.3303C7.22762 25.0213 5.73552 23.1762 6.65541 20.5166C7.31764 18.602 9.40329 15.0136 15.7666 16.7202L15.7465 16.7479C19.3098 22.2556 16.5489 25.3392 14.9352 26.5588C12.6899 28.2557 10.474 27.4071 7.3057 28.3657L7.29652 28.3783C7.29647 28.375 7.29643 28.3718 7.29637 28.3685C7.28443 28.3722 7.27216 28.3748 7.26019 28.3785L7.29521 28.3303Z" fill="white" fill-opacity="0.81"/>
<path d="M24.7848 28.347C21.6175 27.3893 19.4014 28.2383 17.1564 26.5417C15.5402 25.3202 12.7725 22.2272 16.3622 16.7027L16.3823 16.7304C22.7211 15.0436 24.801 18.6221 25.4623 20.5337C26.3822 23.1932 24.8902 25.0386 24.8225 28.3474L24.8322 28.3608C24.8289 28.3598 24.8257 28.3582 24.8223 28.3571C24.8221 28.37 24.8206 28.3831 24.8204 28.396L24.7848 28.347Z" fill="white" fill-opacity="0.81"/>
<path d="M30.133 11.7616C28.2422 14.4787 28.3646 16.8483 26.0569 18.4594C24.3957 19.6191 20.5992 21.2963 16.4543 16.1753L16.4878 16.1644C16.8424 9.6141 20.8883 8.74128 22.9105 8.70317C25.7242 8.65027 27.0179 10.6404 30.1443 11.7271L30.1592 11.7223C30.1573 11.725 30.1554 11.7276 30.1536 11.7303C30.1654 11.7344 30.1768 11.7395 30.1887 11.7435L30.133 11.7616Z" fill="white" fill-opacity="0.81"/>
<circle cx="16" cy="16.4591" r="3.33333" fill="white"/>
<circle cx="16" cy="16.4591" r="1.66667" fill="black"/>
<circle cx="16.0295" cy="13.7925" r="1" fill="white"/>
<circle cx="16.0295" cy="19.1257" r="1" fill="white"/>
<circle cx="13.3629" cy="16.459" r="1" transform="rotate(-90 13.3629 16.459)" fill="white"/>
<circle cx="18.6962" cy="16.459" r="1" transform="rotate(-90 18.6962 16.459)" fill="white"/>
<circle cx="14.1439" cy="14.5735" r="1" transform="rotate(-45 14.1439 14.5735)" fill="white"/>
<circle cx="17.9152" cy="18.3447" r="1" transform="rotate(-45 17.9152 18.3447)" fill="white"/>
<circle cx="14.1439" cy="18.3446" r="1" transform="rotate(-135 14.1439 18.3446)" fill="white"/>
<circle cx="17.9152" cy="14.5733" r="1" transform="rotate(-135 17.9152 14.5733)" fill="white"/>
<circle cx="14.9025" cy="14.0423" r="1" transform="rotate(-25 14.9025 14.0423)" fill="white"/>
<circle cx="17.1564" cy="18.876" r="1" transform="rotate(-25 17.1564 18.876)" fill="white"/>
<circle cx="13.6127" cy="17.5861" r="1" transform="rotate(-115 13.6127 17.5861)" fill="white"/>
<circle cx="18.4463" cy="15.332" r="1" transform="rotate(-115 18.4463 15.332)" fill="white"/>
<circle cx="13.5237" cy="15.5471" r="1" transform="rotate(-70 13.5237 15.5471)" fill="white"/>
<circle cx="18.5354" cy="17.3711" r="1" transform="rotate(-70 18.5354 17.3711)" fill="white"/>
<circle cx="15.1174" cy="18.9649" r="1" transform="rotate(-160 15.1174 18.9649)" fill="white"/>
<circle cx="16.9415" cy="13.9532" r="1" transform="rotate(-160 16.9415 13.9532)" fill="white"/>
</g>
<defs>
<clipPath id="clip0_162_108">
<rect width="32" height="32" fill="white"/>
</clipPath>
</defs>
</svg>
